<?xml version="1.0" encoding="utf-8"?>
<svg version="1.2" baseProfile="tiny" id="monoplane-logo-bg"
	 xmlns="http://www.w3.org/2000/svg" xmlns:xlink="http://www.w3.org/1999/xlink" x="0px" y="0px" width="100px" height="93px"
	 viewBox="0 0 100 93" xml:space="preserve">
<path fill="#333333" d="M59.901,34.417c0.717-0.404,1.649-0.116,2.077,0.643c0.428,0.76,0.191,1.707-0.525,2.111
	c-0.719,0.405-1.652,0.117-2.08-0.642S59.182,34.822,59.901,34.417 M59.615,33.909c-0.988,0.557-1.313,1.853-0.728,2.893
	c0.587,1.041,1.863,1.434,2.852,0.877c0.985-0.555,1.311-1.851,0.725-2.892C61.877,33.747,60.601,33.354,59.615,33.909
	L59.615,33.909z M60.454,35.376c-0.233,0.132-0.32,0.423-0.192,0.652c0.129,0.229,0.424,0.306,0.657,0.174
	c0.234-0.132,0.32-0.424,0.191-0.652C60.981,35.322,60.688,35.244,60.454,35.376z"/>
<path fill="#333333" d="M65.179,32.675c0.767-0.123,1.49,0.396,1.613,1.157c0.122,0.762-0.404,1.48-1.171,1.604
	c-0.769,0.123-1.492-0.396-1.614-1.157C63.884,33.517,64.41,32.798,65.179,32.675 M65.091,32.126
	c-1.071,0.172-1.801,1.175-1.63,2.239c0.171,1.065,1.177,1.79,2.248,1.618c1.068-0.171,1.799-1.175,1.629-2.239
	C67.166,32.68,66.159,31.956,65.091,32.126L65.091,32.126z M65.327,33.61c-0.263,0.042-0.446,0.276-0.406,0.522
	c0.039,0.247,0.286,0.412,0.548,0.37c0.264-0.042,0.447-0.276,0.408-0.523C65.837,33.733,65.59,33.567,65.327,33.61z"/>
<path fill="none" stroke="#333333" stroke-width="1.0236" stroke-linecap="round" stroke-miterlimit="10" d="M11.446,56.834
	c0,0,2.562-3.219-0.726-5.432c-3.288-2.214-7.411-2.616-7.845-5.902"/>
<path fill="none" stroke="#333333" stroke-width="1.0236" stroke-linecap="round" stroke-miterlimit="10" d="M82.111,29.249
	c0,0,2.563-3.219-0.726-5.432c-3.288-2.214-7.411-2.616-7.845-5.902"/>
</svg>
