<?xml version="1.0" encoding="utf-8"?>
<svg version="1.2" baseProfile="tiny" id="monoplane-logo"
	 xmlns="http://www.w3.org/2000/svg" xmlns:xlink="http://www.w3.org/1999/xlink" x="0px" y="0px" width="100px" height="93px"
	 viewBox="0 0 100 93" xml:space="preserve">
<path id="border" fill="#333333" d="M50.001,1.528c2.34,0,4.527,0.633,6.168,1.78l39.11,27.373c1.634,1.147,2.542,2.682,2.542,4.32
	c0,1.634-0.908,3.171-2.542,4.314l-39.11,27.381c-1.641,1.144-3.828,1.774-6.168,1.774s-4.531-0.631-6.168-1.774L4.726,39.314
	C3.085,38.172,2.184,36.635,2.184,35c0-1.638,0.901-3.172,2.542-4.32L43.833,3.308C45.47,2.161,47.661,1.528,50.001,1.528 M50.001,0
	c-2.795,0-5.589,0.743-7.712,2.228L3.182,29.601c-4.242,2.97-4.242,7.827,0,10.796L42.289,67.77c2.124,1.484,4.917,2.23,7.712,2.23
	c2.799,0,5.59-0.746,7.712-2.23l39.104-27.373c4.245-2.969,4.245-7.826,0-10.796L57.713,2.228C55.591,0.743,52.8,0,50.001,0
	L50.001,0z"/>
<path id="monoplane" fill="#CCCCCC" d="M24.656,16.723c0.836,3.438,1.999,7.909,3.329,12.194
	c-9.715,2.413-14.014,3.923-14.312,4.409s-0.141,0.874,1.093,1.117s10.069-1.593,14.204-2.488c1.516,4.454,3.187,8.351,4.818,10.169
	c1.971,2.188,5.139,5.342,9.112,8.354c-15.106,4.288-30.867,7.75-31.633,8.198s1.354,4.399,4.2,4.455s27.371-4.383,37.475-6.649
	c4.108,1.796,8.583,2.925,13.199,2.75c14.341-0.56,20.709-9.908,17.093-14.759c-0.393-0.523-0.847-1.038-1.343-1.547
	c6.949-7.309,13.434-15.074,13.365-16.063s-5.59-1.371-6.642-1.18S82.577,31.75,74.51,37.333c-2.075-1.25-3.64-2.025-3.64-2.025
	s-3.553-9.543-9.163-8.375c-5.622,1.166-21.264,7.788-24.446,4.18c-0.234-0.263-0.484-0.595-0.742-0.974
	c8.293-2.214,12.755-3.677,12.65-4.158s-0.936-0.766-1.708-0.967s-8.929,1.548-12.632,2.332c-2.223-4.056-4.787-9.892-6.269-13.35
	L24.656,16.723z M61.242,29.779c6.715-2.581,8.712,5.726,8.712,5.726c-8.009,1.903-10.787,6.527-10.787,6.527
	C58.512,40.583,54.529,32.358,61.242,29.779z"/>
<path id="text" fill="#333333" d="M57.926,76.125c-0.691,0-1.279,0.334-1.763,1c-0.483,0.667-0.967,1.658-1.449,2.975
	c0.033-0.566,0.083-1,0.149-1.3c0.351-0.633,0.525-1.278,0.525-1.938c0-0.658-0.117-0.987-0.351-0.987s-0.55,0.171-0.949,0.513
	c-0.4,0.342-0.692,0.621-0.875,0.837c-0.024,0.023-0.05,0.507-0.077,1.427c-0.133,0.083-0.328,0.204-0.585,0.361
	c-0.259,0.158-0.722,0.346-1.388,0.563c-0.017-1.101-0.3-1.991-0.851-2.675c-0.55-0.684-1.146-1.025-1.787-1.025
	s-1.196,0.167-1.662,0.5c-1.034,0-1.88,0.492-2.538,1.475c-0.597,0.893-0.908,1.837-0.964,2.831
	c-0.405,0.832-0.813,1.539-1.223,2.106c-0.5,0.692-0.892,1.047-1.175,1.063c-0.1,0-0.149-0.188-0.149-0.563s0.078-1.274,0.237-2.699
	c0.158-1.426,0.237-2.504,0.237-3.238c0-0.35-0.138-0.641-0.412-0.875c-0.275-0.232-0.588-0.35-0.938-0.35
	c-0.351,0-0.746,0.242-1.188,0.725c-0.442,0.484-0.979,1.242-1.612,2.275c-0.634,1.033-0.984,1.6-1.05,1.7
	c0-0.366,0.042-1.025,0.125-1.976c0.333-0.783,0.5-1.616,0.5-2.5c0-0.183-0.025-0.308-0.075-0.375c-0.05-0.066-0.171-0.1-0.363-0.1
	c-0.192,0-0.5,0.158-0.925,0.475c-0.425,0.317-0.721,0.559-0.888,0.726s-0.25,0.649-0.25,1.45v0.464
	c-0.014,0.009-0.023,0.015-0.038,0.023c-0.258,0.158-0.721,0.346-1.387,0.563c-0.017-1.101-0.3-1.991-0.85-2.675
	c-0.55-0.684-1.146-1.025-1.788-1.025s-1.196,0.167-1.663,0.5c-1.034,0-1.879,0.492-2.538,1.475
	c-0.146,0.219-0.271,0.441-0.384,0.667c-0.015-0.004-0.022-0.017-0.04-0.017c-0.108,0-0.409,0.546-0.9,1.638
	c-0.492,1.092-0.992,1.983-1.5,2.675c-0.509,0.691-0.913,1.037-1.212,1.037c-0.3,0-0.45-1.357-0.45-4.074s0.1-4.783,0.3-6.2
	c0.983-1.167,1.475-2.316,1.475-3.45c0-0.366-0.129-0.725-0.387-1.075c-0.259-0.35-0.504-0.524-0.738-0.524
	c-0.684,0-1.283,1.574-1.8,4.725c-1.2,1.3-2.267,2.717-3.2,4.25c-0.533-1.583-1.309-3.116-2.325-4.6
	c0-0.467-0.059-0.913-0.175-1.338s-0.258-0.638-0.425-0.638c-0.55,0-0.946,0.175-1.188,0.525c-0.242,0.35-0.362,0.754-0.362,1.212
	c0,0.459,0.358,1.154,1.075,2.088c-0.267,1.733-0.688,3.425-1.262,5.075c-0.575,1.649-1.188,2.816-1.838,3.5
	c-0.1,0.1-0.321,0.188-0.662,0.263c-0.342,0.074-0.638,0.188-0.888,0.337c-0.25,0.15-0.375,0.409-0.375,0.775
	c0,0.45,0.292,0.675,0.875,0.675c0.8,0,1.491-0.388,2.075-1.162c0.583-0.775,1.15-1.954,1.7-3.538
	c0.55-1.583,0.958-3.133,1.225-4.649c0.633,1.116,1.116,2.258,1.45,3.425c-0.717,1.483-1.075,2.675-1.075,3.575
	c0,1.316,0.341,1.975,1.025,1.975c0.566,0,1.038-0.267,1.413-0.8s0.563-1.288,0.563-2.263s-0.175-2.129-0.525-3.463
	c0.8-1.216,1.683-2.3,2.65-3.25c-0.2,1.867-0.3,4.301-0.3,7.301c0,1.267,0.083,2,0.25,2.199c0.066,0.084,0.25,0.172,0.55,0.263
	c0.3,0.092,0.633,0.138,1,0.138c0.966,0,2.058-1.291,3.275-3.875c0.048-0.105,0.083-0.191,0.126-0.291
	c0,0.01-0.002,0.019-0.002,0.028c0,1.108,0.275,2.075,0.825,2.9c0.55,0.825,1.341,1.237,2.375,1.237c1.416,0,2.508-0.434,3.275-1.3
	c0.766-0.866,1.208-2,1.325-3.4c0.557-0.218,1.025-0.463,1.45-0.721V80c0,0.566-0.046,1.412-0.137,2.537
	c-0.092,1.125-0.138,1.784-0.138,1.976s0.183,0.342,0.55,0.45c0.367,0.107,0.75,0.162,1.15,0.162c0.266,0,0.4-0.233,0.4-0.7
	l-0.025-0.774c0-0.517,0.05-1.066,0.15-1.65c0.05-0.316,0.483-1.046,1.3-2.188c0.816-1.142,1.321-1.713,1.513-1.713
	c0.191,0,0.287,0.275,0.287,0.825s-0.046,1.38-0.137,2.487c-0.092,1.109-0.138,1.909-0.138,2.4c0,0.492,0.058,0.796,0.175,0.912
	c0.333,0.268,0.825,0.4,1.475,0.4c0.776,0,1.708-1.047,2.794-3.129c0.119,0.695,0.356,1.329,0.731,1.892
	c0.55,0.825,1.341,1.237,2.375,1.237c1.416,0,2.508-0.434,3.274-1.3s1.209-2,1.325-3.4c0.767-0.3,1.408-0.638,1.925-1.013
	c0.021-0.015,0.034-0.026,0.054-0.041c-0.005,0.219-0.011,0.451-0.017,0.704c-0.041,1.866-0.121,3.583-0.237,5.149
	c-0.7,2.7-1.05,4.908-1.05,6.625c0,0.233,0.042,0.483,0.125,0.75c0.084,0.267,0.221,0.4,0.412,0.4s0.492-0.18,0.9-0.537
	c0.408-0.359,0.629-0.613,0.662-0.763c0.367-1.667,0.551-4.092,0.551-7.275c0.649,0.467,1.291,0.7,1.925,0.7
	c1.233,0,2.229-0.517,2.987-1.55c0.758-1.033,1.138-2.221,1.138-3.563s-0.259-2.325-0.775-2.95S58.617,76.125,57.926,76.125z
	 M16.29,83.313c-0.083,0.408-0.208,0.612-0.375,0.612c-0.167,0-0.25-0.346-0.25-1.037s0.2-1.479,0.6-2.362
	c0.1,0.55,0.15,1.05,0.15,1.5C16.415,82.475,16.373,82.904,16.29,83.313z M30.464,83.088C30.064,83.696,29.505,84,28.789,84
	c-0.717,0-1.242-0.362-1.575-1.088c-0.333-0.725-0.5-1.487-0.5-2.287c0-1.666,0.358-2.783,1.075-3.35
	c-0.184,0.399-0.275,0.875-0.275,1.425s0.267,1.054,0.8,1.513c0.533,0.458,1.183,0.688,1.95,0.688l0.9-0.051
	C31.097,81.733,30.864,82.479,30.464,83.088z M30.889,79.925c-0.566,0-1.063-0.191-1.487-0.575c-0.425-0.383-0.638-0.883-0.638-1.5
	c0-0.283,0.075-0.545,0.225-0.787c0.15-0.241,0.358-0.362,0.625-0.362c0.533,0,0.921,0.333,1.163,1
	c0.241,0.667,0.379,1.408,0.413,2.225H30.889z M48.839,83.088C48.438,83.696,47.88,84,47.164,84c-0.717,0-1.242-0.362-1.575-1.088
	c-0.334-0.725-0.5-1.487-0.5-2.287c0-1.666,0.358-2.783,1.075-3.35c-0.184,0.399-0.275,0.875-0.275,1.425s0.267,1.054,0.8,1.513
	c0.533,0.458,1.184,0.688,1.95,0.688l0.9-0.051C49.472,81.733,49.239,82.479,48.839,83.088z M49.264,79.925
	c-0.566,0-1.063-0.191-1.487-0.575c-0.425-0.383-0.638-0.883-0.638-1.5c0-0.283,0.075-0.545,0.226-0.787
	c0.149-0.241,0.357-0.362,0.625-0.362c0.533,0,0.92,0.333,1.162,1c0.241,0.667,0.379,1.408,0.412,2.225H49.264z M58.038,83.213
	c-0.517,0.675-1.017,1.012-1.5,1.012c-0.883,0-1.559-0.232-2.024-0.699c0-0.267,0.017-0.634,0.05-1.101
	c1.017-3.316,1.925-4.975,2.725-4.975c0.467,0,0.838,0.296,1.113,0.888c0.274,0.592,0.412,1.383,0.412,2.375
	C58.813,81.704,58.555,82.537,58.038,83.213z M93.175,78.5c-0.092,0-0.175,0.066-0.25,0.2s-0.18,0.35-0.313,0.649
	c-0.5,1.167-1.101,2.209-1.8,3.125c-0.334,0.434-0.7,0.768-1.101,1c-0.399,0.234-0.85,0.351-1.35,0.351s-0.938-0.237-1.313-0.713
	c-0.375-0.475-0.597-1.037-0.663-1.688c1.217-0.033,2.246-0.388,3.088-1.063s1.263-1.513,1.263-2.513
	c0-0.533-0.184-0.953-0.55-1.262c-0.367-0.309-0.834-0.463-1.4-0.463c-1.217,0-2.209,0.467-2.975,1.4
	c-0.611,0.743-0.968,1.778-1.092,3.081c-0.417,0.864-0.835,1.597-1.258,2.181c-0.5,0.692-0.892,1.047-1.175,1.063
	c-0.101,0-0.15-0.188-0.15-0.563s0.079-1.274,0.237-2.699c0.158-1.426,0.237-2.504,0.237-3.238c0-0.35-0.137-0.641-0.412-0.875
	c-0.275-0.232-0.588-0.35-0.938-0.35s-0.746,0.242-1.188,0.725c-0.441,0.484-0.979,1.242-1.612,2.275
	c-0.634,1.033-0.983,1.6-1.05,1.7c0-0.366,0.041-1.025,0.125-1.976c0.333-0.783,0.5-1.616,0.5-2.5c0-0.183-0.025-0.308-0.075-0.375
	c-0.05-0.066-0.171-0.1-0.362-0.1c-0.192,0-0.5,0.158-0.926,0.475c-0.425,0.317-0.721,0.559-0.887,0.726
	c-0.167,0.167-0.25,0.649-0.25,1.45V80c0,0.215-0.009,0.481-0.022,0.776c-0.39,0.791-0.781,1.464-1.177,2.011
	c-0.5,0.692-0.893,1.047-1.176,1.063c-0.1,0-0.149-0.225-0.149-0.675c0-2.333,0.075-3.691,0.225-4.075
	c0.116-0.216,0.221-0.566,0.313-1.05s0.138-0.808,0.138-0.975c0-0.634-0.121-0.95-0.362-0.95c-0.242,0-0.534,0.129-0.875,0.388
	c-0.342,0.259-0.579,0.479-0.713,0.662c-0.667-0.7-1.267-1.05-1.8-1.05c-1.233,0-2.229,0.517-2.987,1.55
	c-0.712,0.971-1.076,2.081-1.12,3.321c-0.354,0.696-0.709,1.296-1.067,1.791c-0.5,0.692-0.892,1.047-1.175,1.063
	c-0.184,0-0.275-0.512-0.275-1.537s0.025-2.229,0.075-3.612c1.316-2.684,1.975-5.108,1.975-7.275c0-0.3-0.066-0.612-0.2-0.938
	C65.03,70.162,64.813,70,64.514,70c-1.284,0-2.101,1.325-2.45,3.975c-0.417,3.217-0.625,5.763-0.625,7.638s0.083,2.913,0.25,3.112
	c0.066,0.084,0.254,0.172,0.563,0.263c0.309,0.092,0.646,0.138,1.013,0.138c0.733,0,1.609-0.948,2.621-2.812
	c0.104,0.801,0.325,1.432,0.679,1.874c0.5,0.625,1.083,0.938,1.75,0.938c0.666,0,1.213-0.263,1.638-0.787
	c0.425-0.525,0.854-1.329,1.287-2.413c-0.033,0.8-0.05,1.438-0.05,1.913c0,0.475,0.059,0.771,0.175,0.887
	c0.333,0.268,0.825,0.4,1.476,0.4c0.722,0,1.581-0.918,2.571-2.723c-0.003,0.047-0.006,0.087-0.01,0.135
	c-0.092,1.125-0.138,1.784-0.138,1.976s0.184,0.342,0.55,0.45c0.366,0.107,0.75,0.162,1.15,0.162c0.267,0,0.399-0.233,0.399-0.7
	l-0.024-0.774c0-0.517,0.05-1.066,0.149-1.65c0.051-0.316,0.483-1.046,1.301-2.188c0.816-1.142,1.32-1.713,1.512-1.713
	s0.288,0.275,0.288,0.825s-0.046,1.38-0.138,2.487c-0.092,1.109-0.138,1.909-0.138,2.4c0,0.492,0.059,0.796,0.175,0.912
	c0.334,0.268,0.825,0.4,1.476,0.4c0.762,0,1.674-1.015,2.734-3.021c0.079,0.718,0.335,1.373,0.79,1.959
	c0.55,0.709,1.291,1.063,2.225,1.063c1.616,0,2.976-0.892,4.075-2.675c1.017-1.667,1.525-2.917,1.525-3.75
	C93.313,78.566,93.266,78.5,93.175,78.5z M87.037,78.138c0.4-0.809,0.892-1.213,1.475-1.213c0.483,0,0.726,0.375,0.726,1.125
	s-0.229,1.358-0.688,1.825c-0.459,0.467-1.18,0.783-2.163,0.95C86.42,79.842,86.637,78.946,87.037,78.138z M64.538,70.85
	c0.134,0,0.2,0.268,0.2,0.801c0,1.333-0.434,3.142-1.3,5.425C63.672,72.925,64.038,70.85,64.538,70.85z M71.501,78.987
	c-0.025,0.325-0.046,0.555-0.063,0.688c-1.066,2.75-1.875,4.125-2.425,4.125c-0.45,0-0.813-0.3-1.088-0.899
	c-0.274-0.601-0.412-1.367-0.412-2.301c0-0.933,0.263-1.745,0.787-2.438c0.525-0.691,1.021-1.037,1.487-1.037
	c0.283,0,0.613,0.121,0.988,0.362c0.375,0.242,0.637,0.496,0.787,0.763C71.547,78.417,71.526,78.662,71.501,78.987z"/>
</svg>
