<?xml version="1.0" encoding="utf-8"?>
<!-- Generator: Adobe Illustrator 15.0.0, SVG Export Plug-In . SVG Version: 6.00 Build 0)  -->
<!DOCTYPE svg PUBLIC "-//W3C//DTD SVG 1.1//EN" "http://www.w3.org/Graphics/SVG/1.1/DTD/svg11.dtd">
<svg version="1.1" id="logo" xmlns="http://www.w3.org/2000/svg" xmlns:xlink="http://www.w3.org/1999/xlink" x="0px" y="0px"
	 width="395.299px" height="395.299px" viewBox="0 0 395.299 395.299" enable-background="new 0 0 395.299 395.299"
	 xml:space="preserve">
<g id="hinten">
	<path opacity="0.15" fill="#FFFFFF" d="M216.005,144.466c6.019,12.901,7.38,28.185,5.446,42.515
		c-5.54,0.015-11.048,1.341-16.3,3.476C208.77,175.126,212.387,159.796,216.005,144.466z M235.7,61.016
		c-2.992,12.677-5.983,25.353-8.975,38.029c17.014,19.861,18.404,50.12,9.239,74.936c-1.768,4.787-3.817,9.468-6.041,14.071
		c1.744,0.461,3.479,1.072,5.199,1.865c10.215,4.707,17.969,13.419,23.745,22.893c6.147,10.083,12.633,20.589,23.27,26.524
		c14.842,8.281,31.584,4.278,45.003-4.925c3.544-2.431,6.907-5.118,10.109-7.985l38.553-120.632L235.7,61.016z M64.834,148.044
		c14.095-17.091,31.32-32.497,49.554-44.989c28.135-19.276,65.671-34.725,98.064-15.868c1.658,0.965,3.226,2.005,4.731,3.095
		c1.46-6.188,2.92-12.376,4.381-18.564c1.047-4.438,3.544-8.965,6.184-13.244L105.792,19.498L64.623,148.313
		C64.695,148.224,64.762,148.132,64.834,148.044z M312.197,264.671c-12.24,8.964-28.215,16.269-43.423,10.5
		c-10.001-3.793-17.819-11.607-23.636-20.414c-6.838-10.354-12.596-21.545-23.351-28.498c-3.647-2.357-7.432-3.956-11.278-4.89
		c-3.958,5.794-8.352,11.353-13.697,15.849c-1.075,0.904-2.18,1.742-3.298,2.548c-6.593,27.938-13.187,55.876-19.78,83.814
		c-1.047,4.438-3.544,8.965-6.184,13.243l121.957,38.978l41.156-128.776C325.298,253.627,319.045,259.657,312.197,264.671z
		 M180.285,246.631c-8.079,2.716-16.774,3.186-25.651,1.038c-0.711-0.172,5.635-12.322,5.905-12.811
		c3.425-6.207,6.898-12.84,11.337-18.405c5.591-7.009,12.238-13.354,19.606-18.464c0.111-0.077,0.225-0.153,0.337-0.23
		c0.178-0.755,0.356-1.51,0.535-2.266c5.038-21.349,10.077-42.698,15.115-64.046c-2.644-2.947-5.666-5.629-9.119-7.959
		c-32.474-21.908-71.204-9.08-100.917,11.278c-13.849,9.489-27.135,20.529-38.949,32.753L19.498,289.507l140.101,44.776
		C166.495,305.065,173.39,275.848,180.285,246.631z"/>
	<path opacity="0.15" d="M157.531,343.048L0,230.975L164.324,0l69.195,49.228c-0.333,0.546-0.666,1.093-0.996,1.639
		c-3.752,6.219-9.26,13.654-10.958,20.851c-1.46,6.188-2.921,12.376-4.381,18.564c-1.506-1.089-3.073-2.129-4.731-3.095
		c-32.393-18.857-69.929-3.409-98.064,15.868c-18.234,12.493-35.459,27.898-49.554,44.989c-4.968,6.024-8.819,13.105-12.579,19.916
		c-1.821,3.3-3.647,6.645-5.14,10.112c-0.091,0.25-1.651,4.147-0.116,2.286c14.343-17.393,31.884-32.883,50.434-45.592
		c29.713-20.357,68.442-33.186,100.917-11.278c3.453,2.33,6.475,5.012,9.119,7.959c-5.038,21.349-10.077,42.698-15.115,64.046
		c-0.178,0.755-0.356,1.511-0.535,2.266c-0.112,0.077-0.226,0.153-0.337,0.23c-7.368,5.11-14.015,11.455-19.606,18.464
		c-4.439,5.565-7.912,12.199-11.337,18.405c-0.27,0.489-6.617,12.639-5.905,12.811c8.877,2.148,17.573,1.678,25.651-1.038
		C172.7,278.77,165.115,310.909,157.531,343.048z M205.151,190.457c5.252-2.134,10.761-3.46,16.3-3.476
		c1.934-14.331,0.573-29.614-5.446-42.515C212.387,159.796,208.77,175.126,205.151,190.457z M237.768,52.251
		c-3.681,15.598-7.362,31.196-11.043,46.794c17.014,19.861,18.404,50.12,9.239,74.936c-1.768,4.787-3.817,9.468-6.041,14.071
		c1.744,0.461,3.479,1.072,5.199,1.865c10.215,4.707,17.969,13.419,23.745,22.893c6.147,10.083,12.633,20.589,23.27,26.524
		c14.842,8.281,31.584,4.278,45.003-4.925c5.434-3.727,10.485-8.005,15.092-12.717c1.537-1.572,3.042-3.176,4.476-4.843
		c0.133-0.154,0.24-0.278,0.333-0.385c0.205-0.303,2.484-3.333,1.875-1.166c-0.78,2.769-2.385,5.498-3.704,8.015
		c-3.985,7.606-8.178,15.655-13.505,22.431c-5.587,7.107-12.218,13.588-19.509,18.927c-12.24,8.964-28.215,16.269-43.423,10.5
		c-10.001-3.793-17.819-11.607-23.636-20.414c-6.838-10.354-12.596-21.545-23.351-28.498c-3.647-2.357-7.432-3.956-11.278-4.89
		c-3.958,5.794-8.352,11.353-13.697,15.849c-1.075,0.904-2.18,1.742-3.298,2.548c-6.593,27.938-13.187,55.876-19.78,83.814
		c-1.699,7.197-7.207,14.632-10.958,20.851c-0.33,0.546-0.663,1.093-0.996,1.639l69.195,49.228l164.324-230.975L237.768,52.251z"/>
	<path opacity="0.15" d="M216.005,144.466c6.019,12.901,7.38,28.185,5.446,42.515c-5.54,0.015-11.048,1.341-16.3,3.476
		C208.77,175.126,212.387,159.796,216.005,144.466z M395.283,231.067L164.231,395.283L0.015,164.231L231.067,0.015L395.283,231.067z
		 M348.915,215.298c0.61-2.168-1.67,0.862-1.875,1.166c-0.093,0.107-0.2,0.231-0.333,0.385c-1.434,1.667-2.939,3.271-4.476,4.843
		c-4.607,4.712-9.658,8.99-15.092,12.717c-13.418,9.203-30.161,13.206-45.003,4.925c-10.637-5.935-17.123-16.441-23.27-26.524
		c-5.775-9.474-13.53-18.187-23.745-22.893c-1.72-0.792-3.456-1.404-5.199-1.865c2.224-4.603,4.272-9.284,6.041-14.071
		c9.165-24.816,7.775-55.075-9.239-74.936c4.184-17.725,8.367-35.45,12.55-53.176c0.452-1.917,0.905-3.835,1.357-5.752
		c0.555-2.354-2.125,1.511-1.858,1.154c-2.283,3.05-4.285,6.337-6.25,9.595c-3.752,6.219-9.26,13.654-10.958,20.851
		c-1.46,6.188-2.921,12.376-4.381,18.564c-1.506-1.089-3.073-2.129-4.731-3.095c-32.393-18.857-69.929-3.409-98.064,15.868
		c-18.234,12.493-35.459,27.898-49.554,44.989c-4.968,6.024-8.819,13.105-12.579,19.916c-1.821,3.3-3.647,6.645-5.14,10.112
		c-0.091,0.25-1.651,4.147-0.116,2.286c14.343-17.393,31.884-32.883,50.434-45.592c29.713-20.357,68.442-33.186,100.917-11.278
		c3.453,2.33,6.475,5.012,9.119,7.959c-5.038,21.349-10.077,42.698-15.115,64.046c-0.178,0.755-0.356,1.511-0.535,2.266
		c-0.112,0.077-0.226,0.153-0.337,0.23c-7.368,5.11-14.015,11.455-19.606,18.464c-4.439,5.565-7.912,12.199-11.337,18.405
		c-0.27,0.489-6.617,12.639-5.905,12.811c8.877,2.148,17.573,1.678,25.651-1.038c-8.087,34.266-16.174,68.532-24.261,102.799
		c-0.452,1.917-0.905,3.835-1.357,5.752c-0.555,2.354,2.125-1.511,1.858-1.154c2.283-3.05,4.285-6.337,6.25-9.595
		c3.752-6.219,9.26-13.654,10.958-20.851c6.593-27.938,13.187-55.876,19.78-83.814c1.119-0.806,2.224-1.644,3.298-2.548
		c5.345-4.496,9.739-10.054,13.697-15.849c3.846,0.934,7.631,2.532,11.278,4.89c10.755,6.952,16.513,18.144,23.351,28.498
		c5.817,8.807,13.634,16.621,23.636,20.414c15.208,5.769,31.183-1.536,43.423-10.5c7.291-5.339,13.921-11.82,19.509-18.927
		c5.327-6.776,9.521-14.825,13.505-22.431C346.53,220.796,348.135,218.066,348.915,215.298z"/>
	<path opacity="0.15" fill="#FFFFFF" d="M216.005,144.466c6.019,12.901,7.38,28.185,5.446,42.515
		c-5.54,0.015-11.048,1.341-16.3,3.476C208.77,175.126,212.387,159.796,216.005,144.466z M375.772,289.563l-270.037,86.21
		L19.527,105.736l270.036-86.21L375.772,289.563z M348.915,215.298c0.61-2.168-1.67,0.862-1.875,1.166
		c-0.093,0.107-0.2,0.231-0.333,0.385c-1.434,1.667-2.939,3.271-4.476,4.843c-4.607,4.712-9.658,8.99-15.092,12.717
		c-13.418,9.203-30.161,13.206-45.003,4.925c-10.637-5.935-17.123-16.441-23.27-26.524c-5.775-9.474-13.53-18.187-23.745-22.893
		c-1.72-0.792-3.456-1.404-5.199-1.865c2.224-4.603,4.272-9.284,6.041-14.071c9.165-24.816,7.775-55.075-9.239-74.936
		c4.184-17.725,8.367-35.45,12.55-53.176c0.452-1.917,0.905-3.835,1.357-5.752c0.555-2.354-2.125,1.511-1.858,1.154
		c-2.283,3.05-4.285,6.337-6.25,9.595c-3.752,6.219-9.26,13.654-10.958,20.851c-1.46,6.188-2.921,12.376-4.381,18.564
		c-1.506-1.089-3.073-2.129-4.731-3.095c-32.393-18.857-69.929-3.409-98.064,15.868c-18.234,12.493-35.459,27.898-49.554,44.989
		c-4.968,6.024-8.819,13.105-12.579,19.916c-1.821,3.3-3.647,6.645-5.14,10.112c-0.091,0.25-1.651,4.147-0.116,2.286
		c14.343-17.393,31.884-32.883,50.434-45.592c29.713-20.357,68.442-33.186,100.917-11.278c3.453,2.33,6.475,5.012,9.119,7.959
		c-5.038,21.349-10.077,42.698-15.115,64.046c-0.178,0.755-0.356,1.511-0.535,2.266c-0.112,0.077-0.226,0.153-0.337,0.23
		c-7.368,5.11-14.015,11.455-19.606,18.464c-4.439,5.565-7.912,12.199-11.337,18.405c-0.27,0.489-6.617,12.639-5.905,12.811
		c8.877,2.148,17.573,1.678,25.651-1.038c-8.087,34.266-16.174,68.532-24.261,102.799c-0.452,1.917-0.905,3.835-1.357,5.752
		c-0.555,2.354,2.125-1.511,1.858-1.154c2.283-3.05,4.285-6.337,6.25-9.595c3.752-6.219,9.26-13.654,10.958-20.851
		c6.593-27.938,13.187-55.876,19.78-83.814c1.119-0.806,2.224-1.644,3.298-2.548c5.345-4.496,9.739-10.054,13.697-15.849
		c3.846,0.934,7.631,2.532,11.278,4.89c10.755,6.952,16.513,18.144,23.351,28.498c5.817,8.807,13.634,16.621,23.636,20.414
		c15.208,5.769,31.183-1.536,43.423-10.5c7.291-5.339,13.921-11.82,19.509-18.927c5.327-6.776,9.521-14.825,13.505-22.431
		C346.53,220.796,348.135,218.066,348.915,215.298z"/>
	<path opacity="0.15" d="M236.903,55.917h102.478v168.555c-3.82,3.62-7.903,6.96-12.242,9.937
		c-13.418,9.203-30.161,13.206-45.003,4.925c-10.637-5.935-17.123-16.441-23.27-26.524c-5.775-9.474-13.53-18.187-23.745-22.893
		c-1.72-0.792-3.456-1.404-5.199-1.865c2.224-4.603,4.272-9.284,6.041-14.071c9.165-24.816,7.775-55.075-9.239-74.936
		C230.118,84.669,233.51,70.293,236.903,55.917z M205.151,190.457c5.252-2.134,10.761-3.46,16.3-3.476
		c1.934-14.331,0.573-29.614-5.446-42.515C212.387,159.796,208.77,175.126,205.151,190.457z M64.834,148.044
		c14.095-17.091,31.32-32.497,49.554-44.989c28.135-19.276,65.671-34.725,98.064-15.868c1.658,0.965,3.226,2.005,4.731,3.095
		c1.46-6.188,2.92-12.376,4.381-18.564c1.259-5.333,4.61-10.797,7.788-15.801H55.917v105.491
		C58.589,156.743,61.45,152.147,64.834,148.044z M180.285,246.631c-8.079,2.716-16.774,3.186-25.651,1.038
		c-0.711-0.172,5.635-12.322,5.905-12.811c3.425-6.207,6.898-12.84,11.337-18.405c5.591-7.009,12.238-13.354,19.606-18.464
		c0.111-0.077,0.225-0.153,0.337-0.23c0.178-0.755,0.356-1.51,0.535-2.266c5.038-21.349,10.077-42.698,15.115-64.046
		c-2.644-2.947-5.666-5.629-9.119-7.959c-32.474-21.908-71.204-9.08-100.917,11.278c-14.863,10.184-29.075,22.157-41.517,35.459
		v169.156h102.479C165.692,308.464,172.989,277.547,180.285,246.631z M331.706,245.744c-5.587,7.107-12.218,13.588-19.509,18.927
		c-12.24,8.964-28.215,16.269-43.423,10.5c-10.001-3.793-17.819-11.607-23.636-20.414c-6.838-10.354-12.596-21.545-23.351-28.498
		c-3.647-2.357-7.432-3.956-11.278-4.89c-3.958,5.794-8.352,11.353-13.697,15.849c-1.075,0.904-2.18,1.742-3.298,2.548
		c-6.593,27.938-13.187,55.876-19.78,83.814c-1.259,5.333-4.609,10.797-7.787,15.8h173.434v-105.28
		C337.049,238.168,334.541,242.138,331.706,245.744z M156.014,246.378C155.793,246.64,155.79,246.651,156.014,246.378
		L156.014,246.378z"/>
</g>
<g id="vorn">
	<path opacity="0.4" d="M180.285,246.631c-6.762,28.651-13.523,57.303-20.285,85.954L58.17,167.845
		c4.815-5.002,9.879-9.805,15.127-14.387l58.974-36.454c21.918-7.318,45.28-7.548,66.079,6.483c3.453,2.33,6.475,5.012,9.119,7.959
		c-5.038,21.349-10.077,42.698-15.115,64.046c-0.178,0.755-0.356,1.511-0.535,2.266c-0.112,0.077-0.226,0.153-0.337,0.23
		c-7.368,5.11-14.015,11.455-19.606,18.464c-4.439,5.565-7.912,12.199-11.337,18.405c-0.27,0.489-6.617,12.639-5.905,12.811
		C163.511,249.816,172.207,249.347,180.285,246.631z M212.452,87.187c1.658,0.965,3.226,2.005,4.731,3.095
		c1.46-6.188,2.92-12.376,4.381-18.564c1.112-4.712,3.858-9.524,6.674-14.033l-35.722,22.081
		C199.289,81.037,205.974,83.416,212.452,87.187z M235.963,173.981c-1.768,4.787-3.817,9.468-6.041,14.071
		c1.744,0.461,3.479,1.072,5.199,1.865c10.215,4.707,17.969,13.419,23.745,22.893c6.147,10.083,12.633,20.589,23.27,26.524
		c14.842,8.281,31.584,4.278,45.003-4.925c3.365-2.308,6.563-4.85,9.62-7.552L235.299,62.714
		c-2.858,12.11-5.716,24.221-8.574,36.331C243.738,118.906,245.128,149.165,235.963,173.981z M245.138,254.757
		c-6.838-10.354-12.596-21.545-23.351-28.498c-3.647-2.357-7.432-3.956-11.278-4.89c-3.958,5.794-8.352,11.353-13.697,15.849
		c-1.075,0.904-2.18,1.742-3.298,2.548c-6.593,27.938-13.187,55.876-19.78,83.814c-1.112,4.712-3.858,9.524-6.674,14.033
		L268.356,275C258.557,271.149,250.873,263.44,245.138,254.757z M205.151,190.457c5.252-2.134,10.761-3.46,16.3-3.476
		c1.934-14.331,0.573-29.614-5.446-42.515C212.387,159.796,208.77,175.126,205.151,190.457z"/>
	<path opacity="0.25" d="M205.151,190.457c3.618-15.331,7.236-30.661,10.854-45.991c6.019,12.901,7.38,28.185,5.446,42.515
		C215.912,186.996,210.404,188.322,205.151,190.457z M174.634,248.134l3.833,6.201c0.606-2.568,1.212-5.136,1.818-7.705
		C178.433,247.254,176.546,247.752,174.634,248.134z M235.963,173.981c-1.768,4.787-3.817,9.468-6.041,14.071
		c1.744,0.461,3.479,1.072,5.199,1.865c10.215,4.707,17.969,13.419,23.745,22.893c0.18,0.295,0.361,0.591,0.542,0.887l1.723-1.065
		l-24.703-39.965C236.274,173.105,236.124,173.546,235.963,173.981z M171.876,216.452c5.591-7.009,12.238-13.354,19.606-18.464
		c0.111-0.077,0.225-0.153,0.337-0.23c0.178-0.755,0.356-1.51,0.535-2.266c4.494-19.042,8.988-38.083,13.481-57.125l-71.668,44.299
		l29.146,47.153C165.891,225.183,168.623,220.531,171.876,216.452z M196.813,237.219c-1.075,0.904-2.18,1.742-3.298,2.548
		c-1.35,5.721-2.7,11.442-4.05,17.164l39.724-24.554c-2.207-2.26-4.637-4.33-7.4-6.117c-3.647-2.357-7.432-3.956-11.278-4.89
		C206.551,227.165,202.157,232.723,196.813,237.219z"/>
	<path opacity="0.25" d="M205.151,190.457c1.538-6.514,3.075-13.028,4.612-19.542l9.965,16.122
		C214.771,187.289,209.858,188.544,205.151,190.457z M191.819,197.758c0.178-0.755,0.356-1.51,0.535-2.266
		c2.138-9.058,4.275-18.115,6.413-27.173l-34.648,21.417l12.873,20.825c4.389-4.675,9.252-8.94,14.49-12.573
		C191.593,197.911,191.707,197.835,191.819,197.758z"/>
</g>
</svg>
