<?xml version="1.0" encoding="utf-8"?>
<svg version="1.2" baseProfile="tiny" id="Ebene_1" xmlns="http://www.w3.org/2000/svg" xmlns:xlink="http://www.w3.org/1999/xlink"
	 x="0px" y="0px" width="100px" height="52.548px" viewBox="0 0 100 52.548" xml:space="preserve">
<path fill="#1D1D1B" d="M81.136,41.198C90.664,36.366,100,30.152,100,30.152c-0.669-0.928-6.919-2.51-6.919-2.51
	s-8.207,3.949-18.489,7.035c-1.924-1.557-3.422-2.583-3.422-2.583s-1.311-9.121-7.74-9.352c-6.429-0.231-25.241,2.07-27.743-1.791
	c-0.182-0.281-0.365-0.625-0.548-1.013c9.623-0.089,14.893-0.817,14.893-0.817l-1.603-1.222c-5.354-0.395-10.139-0.637-14.381-0.776
	c-1.933-5.832-3.641-15.056-3.822-15.801c-0.231-0.952-2.152-1.435-4.32-1.3c0,0-0.352,8.73,0.266,16.948
	c-11.227-0.053-16.77,0.667-16.77,0.667l0.895,1.217c5.997,0.549,11.39,0.849,16.136,0.99c0.459,4.227,1.234,8.004,2.527,9.948
	c1.563,2.349,4.167,5.811,7.689,9.322C19.05,39.495,0,39.234,0,39.234c-0.057,0.549,3.384,4.821,3.384,4.821
	c16.533,1.607,30.987,2.265,42.597,2.536c3.998,2.484,8.565,4.467,13.643,5.338c15.77,2.706,25.209-4.04,22.565-9.077
	C81.902,42.306,81.539,41.752,81.136,41.198z M62.166,25.124c8-0.759,7.959,6.94,7.959,6.94c-9.235-0.118-13.499,3.293-13.499,3.293
	C56.304,33.951,54.167,25.883,62.166,25.124z"/>
</svg>
